<svg xmlns="http://www.w3.org/2000/svg" viewBox="0 0 500 500"><g id="freepik--Floor--inject-11"><path d="M48.23,466.51c129.27-.61,274.27-.62,403.54,0-129.27.62-274.27.61-403.54,0Z" style="fill:#263238"></path></g><g id="freepik--Plant--inject-11"><path d="M99.92,377.28s-9.13-14-29.58-11.29c-19.43,2.59-31.52,36.63-12.69,42.63s18.49-26.6,26-31.42C89.18,373.67,96.49,375.24,99.92,377.28Z" style="fill:#FFC727"></path><path d="M53.08,383.57a40.4,40.4,0,0,1,4.42-2.77A18.17,18.17,0,0,1,62.11,379,26,26,0,0,1,65,375.92a25.66,25.66,0,0,1,6.51-4.24c-.2,0-.4-.08-.59-.1a31,31,0,0,0-3.19-.27,17.87,17.87,0,0,0-6.32.95.1.1,0,0,1-.07-.18,28.15,28.15,0,0,1,6.35-1.27,17.45,17.45,0,0,1,3.15,0c.56.05,1.12.15,1.67.25l.32.06a27.23,27.23,0,0,1,6-1.58l-.55-.2a26.51,26.51,0,0,0-2.91-.77,23.7,23.7,0,0,0-6-.47c-.12,0-.14-.19,0-.19a38.66,38.66,0,0,1,6.08.32,26.25,26.25,0,0,1,5,1.13,28.34,28.34,0,0,1,3.69-.07c7,.37,14.36,3.7,18.11,9.84s3.87,13.88,4,20.88a153.83,153.83,0,0,1-2,29.16c-.1.57-.89.39-.86-.16.52-8.25,1-16.5,1-24.77,0-3.83,0-7.68-.32-11.5a34,34,0,0,0-1.87-9.62,17.3,17.3,0,0,0-6.07-7.9,22.94,22.94,0,0,0-9.29-3.85,26,26,0,0,0-9,0,6.29,6.29,0,0,1-.12,1.78,9.29,9.29,0,0,1-.65,2.14,11.65,11.65,0,0,1-1,1.87c-.43.65-1,1.22-1.43,1.84-.08.09-.24,0-.15-.13a9.15,9.15,0,0,0,1.93-3.8,17.1,17.1,0,0,0,.43-2c.07-.52.08-1,.15-1.55a26.59,26.59,0,0,0-9.17,3.78c-.53.35-1,.71-1.53,1.09a10.14,10.14,0,0,1,1.5,2.25A20.28,20.28,0,0,1,69.13,382a27.37,27.37,0,0,1,1.2,7.13.1.1,0,0,1-.2,0,20.12,20.12,0,0,0-1.65-6.81,26.76,26.76,0,0,0-1.49-3.1c-.3-.51-.6-1-.92-1.52-.17-.27-.36-.54-.52-.82a27.86,27.86,0,0,0-6.44,7.45l0,0a14,14,0,0,1,2,3.59,32.6,32.6,0,0,1,1.49,4.19,66.25,66.25,0,0,1,1.61,8.38c0,.12-.17.14-.19,0A34.07,34.07,0,0,0,62,392.23c-.48-1.31-1-2.6-1.55-3.88a38.2,38.2,0,0,1-1.55-3.68,25.92,25.92,0,0,0-3.16,9.05c0,.12-.21.09-.19,0a32.7,32.7,0,0,1,5.84-13.8c-1.27.4-2.54.79-3.78,1.31a20.72,20.72,0,0,0-4.44,2.53C53.09,383.81,53,383.65,53.08,383.57Z" style="fill:#263238"></path><path d="M67.69,385.7c.41,2,1,4,1.34,6.07a23,23,0,0,1,.32,6c0,.05-.09.05-.09,0a57.94,57.94,0,0,0-1.76-12C67.46,385.61,67.66,385.57,67.69,385.7Z" style="fill:#263238"></path><path d="M55.47,379.6A11.42,11.42,0,0,1,58.3,378a19.62,19.62,0,0,1,3.17-.8c.12,0,.15.18,0,.2a12,12,0,0,0-3.07.93,23.13,23.13,0,0,0-2.87,1.41C55.48,379.74,55.41,379.65,55.47,379.6Z" style="fill:#263238"></path><path d="M90,361s-1.92-23.52-19.4-31.14C56,323.5,47.67,339.91,58,350,66.34,358.07,79.73,354.41,90,361Z" style="fill:#FFC727"></path><path d="M61.23,334.42A74.49,74.49,0,0,1,69,338.1a59.09,59.09,0,0,1,6,4c-.29-.59-.55-1.22-.84-1.8-.46-.9-.94-1.79-1.48-2.65a24.94,24.94,0,0,0-3.85-4.88c-.09-.08,0-.22.13-.13a38,38,0,0,1,4.06,4.72A26.91,26.91,0,0,1,74.72,340a10.2,10.2,0,0,1,1.17,2.71l.2.14a57.57,57.57,0,0,1,8.35,8.17c0-.24-.1-.47-.16-.68-.33-1.15-.68-2.28-1.06-3.42a28.77,28.77,0,0,0-3.16-6.85c-.07-.11.11-.2.17-.1a54.89,54.89,0,0,1,3.66,6.69,27,27,0,0,1,1.21,3.48,16,16,0,0,1,.57,2.36c.76,1,1.51,1.94,2.21,2.94,7.51,10.69,11.27,23.61,12.18,36.54a111.87,111.87,0,0,1,.19,11.58,73,73,0,0,1-1,11.63c0,.24-.43.17-.42-.07.08-3.4.43-6.78.5-10.18A99.41,99.41,0,0,0,99,394.76a95.31,95.31,0,0,0-3.81-20,71.72,71.72,0,0,0-8.89-18.81c-.74-.14-1.47-.34-2.19-.53-.87-.23-1.75-.45-2.62-.69a26.32,26.32,0,0,1-4.87-1.79c-.11-.05,0-.23.1-.16a15.74,15.74,0,0,0,4.94,1.7c1.37.28,2.79.45,4.16.77a64.13,64.13,0,0,0-4.06-5.34,30.3,30.3,0,0,1-9.95-.75,39.92,39.92,0,0,1-5.09-1.58c-1.75-.68-3.41-1.54-5.13-2.27-.13-.05,0-.24.07-.17a29.29,29.29,0,0,0,10.09,3.3,62,62,0,0,0,9.43.78c-1.25-1.42-2.53-2.81-3.9-4.12-4.59-4.37-10-8.39-16.09-10.48A.1.1,0,0,1,61.23,334.42Z" style="fill:#263238"></path><path d="M75.45,334.5a28,28,0,0,1,2.15,3.13,17.76,17.76,0,0,1,1.54,3.65s0,.06-.07,0c-.59-1.15-1.08-2.35-1.67-3.49a16.79,16.79,0,0,0-2.09-3.18C75.23,334.53,75.38,334.4,75.45,334.5Z" style="fill:#263238"></path><path d="M59.2,342.32a17.84,17.84,0,0,0,3.58,1.5,33.32,33.32,0,0,0,3.65,1c.06,0,0,.11,0,.1a18,18,0,0,1-3.77-.82,32.13,32.13,0,0,1-3.54-1.59C59,342.43,59.09,342.26,59.2,342.32Z" style="fill:#263238"></path><path d="M102.66,357.54c.11,1,2.64-8.54,17.42-17,13.43-7.7,29.45-27.74,16.29-40.39C125.74,289.91,97.75,312.18,102.66,357.54Z" style="fill:#FFC727"></path><path d="M92.48,412.31a261.57,261.57,0,0,1,2.35-29.72A134.2,134.2,0,0,1,101.07,356c1.1-3.1,2.36-6.16,3.72-9.17a21.7,21.7,0,0,1,.06-3.52c.07-1.51.21-3,.35-4.51s.29-3,.47-4.5.5-3,.56-4.48c0-.14.22-.11.19,0a31.53,31.53,0,0,0-.54,4.76q-.16,2.18-.24,4.35c0,1.46,0,2.91,0,4.37,0,.52,0,1.08,0,1.64,1.39-2.94,2.88-5.83,4.5-8.65-1-6.13.29-12.53,1.55-18.52,0-.12.21-.07.18.05a52.24,52.24,0,0,0-1,9.5c-.06,2.52.06,5,.07,7.55.35-.6.7-1.21,1.07-1.8,1.91-3.13,4-6.2,6.14-9.18a14.17,14.17,0,0,1,.14-4.36,34,34,0,0,1,1.07-4.78q.7-2.34,1.64-4.61c.64-1.55,1.49-3,2.11-4.58,0-.13.25-.05.17.07a23.28,23.28,0,0,0-1.85,4.64,45.76,45.76,0,0,0-1.21,4.6c-.31,1.56-.56,3.11-.78,4.69-.15,1-.24,2.11-.42,3.17a113.34,113.34,0,0,1,10.35-12.05c.09-.09.21.05.13.14a136,136,0,0,0-15,20.44c-.17.28-.32.55-.48.83.81-.51,1.75-.92,2.52-1.35,1.43-.79,2.86-1.58,4.31-2.36l4.18-2.29c.72-.4,1.43-.81,2.16-1.19a17,17,0,0,0,2.5-1.39c.11-.08.23.09.11.16-1.42.78-2.68,1.94-4,2.82s-2.79,1.73-4.22,2.53c-2.63,1.47-5.48,2.52-8.07,4q-2.69,4.71-5,9.64c1.57-1,3.17-2,4.8-2.87,1-.59,2.1-1.17,3.16-1.73a15.55,15.55,0,0,0,3-1.8c.09-.08.22.06.13.14a27.62,27.62,0,0,1-5.68,3.95c-1.9,1.11-3.82,2.19-5.79,3.15q-2.37,5.2-4.28,10.58c-6.22,17.62-8.51,36.32-9.6,54.89-.33,5.54-.49,11.07-.56,16.62s.22,11.07.21,16.6c0,.17-.27.21-.29,0-.67-4.91-.78-9.91-1-14.85S92.37,417.34,92.48,412.31Z" style="fill:#263238"></path><path d="M119.34,332.55a71.08,71.08,0,0,0,7.85-4.06,83.79,83.79,0,0,0,7.46-4.73s.09,0,0,.07a62,62,0,0,1-7.16,5,70.16,70.16,0,0,1-8.11,3.89C119.32,332.77,119.22,332.6,119.34,332.55Z" style="fill:#263238"></path><path d="M115.05,312.64c.22-.86.49-1.7.78-2.54a.07.07,0,0,1,0-.1c.18-.48.38-.95.57-1.42l.07-.17c0-.09.08-.18.11-.27s.06,0,0,0-.09.33-.14.49a2.76,2.76,0,0,1-.08.27,68.85,68.85,0,0,0-2.19,10c0,.1-.18.11-.18,0A34.52,34.52,0,0,1,115.05,312.64Z" style="fill:#263238"></path><path d="M100,383c5.15-16,16.79-25.5,31.76-23.3s20,21.9,10.05,28.49-22.83-6.65-28.92-8.88S100,383,100,383Z" style="fill:#FFC727"></path><path d="M98.63,423.85c-.22-1.81-.4-3.62-.6-5.44-.38-3.62-.78-7.24-1.16-10.86-.69-6.62-.9-13.19,1-19.65a30,30,0,0,1,9.65-15,24.65,24.65,0,0,1,5.7-3.49,14.38,14.38,0,0,1,6.53-4.9,29.22,29.22,0,0,1,10.07-1.69c.12,0,.14.18,0,.19a24.43,24.43,0,0,0-9.46,2,20.36,20.36,0,0,0-3.64,2.05,17.56,17.56,0,0,0-2,1.73,20.84,20.84,0,0,1,8.79-1.17,19.1,19.1,0,0,1,3.18.57,9,9,0,0,1,2.37-.54,14,14,0,0,1,3.17,0,23.72,23.72,0,0,1,6.28,1.73c.11.05,0,.22-.08.18a22.23,22.23,0,0,0-6.08-1.35,19,19,0,0,0-3,0,13.14,13.14,0,0,0-1.65.25,19.26,19.26,0,0,1,10.61,7.92c.06.11-.09.22-.16.12a17.61,17.61,0,0,0-13.18-7.8c-.33,0-.66,0-1,0a13,13,0,0,1,.36,1.43c.2.71.43,1.42.67,2.12a37.25,37.25,0,0,0,1.8,4.21,33.19,33.19,0,0,0,2.34,4,19.93,19.93,0,0,0,3,3.76.1.1,0,1,1-.14.13c-1.06-1.23-2.24-2.33-3.22-3.62a31.1,31.1,0,0,1-2.55-3.9,29.64,29.64,0,0,1-1.92-4.31c-.27-.78-.51-1.58-.72-2.38a5.65,5.65,0,0,1-.3-1.47,19.67,19.67,0,0,0-5.12.62c1.15,3.48,2.36,7.1,4.81,9.92.08.09-.08.22-.16.12a42,42,0,0,1-3.19-4.76,19.37,19.37,0,0,1-2-5.14,23.72,23.72,0,0,0-8,4,28.09,28.09,0,0,0-9.47,13.88,46.56,46.56,0,0,0-1.65,18.19c.61,7.72,1.61,15.43,1.93,23.17,0,.5-.75.78-.92.23A27.28,27.28,0,0,1,98.63,423.85Z" style="fill:#263238"></path><path d="M108.35,371.59a8.34,8.34,0,0,1,1.44-1.76,21.67,21.67,0,0,1,1.65-1.67,13.65,13.65,0,0,1,3.86-2.51c.11,0,.19.13.07.18a10.94,10.94,0,0,0-3.8,2.59c-.54.53-1.06,1.09-1.55,1.67a11.64,11.64,0,0,1-1.47,1.66C108.45,371.82,108.29,371.71,108.35,371.59Z" style="fill:#263238"></path><path d="M132.36,373.7a43.43,43.43,0,0,1,4,3.94,27.72,27.72,0,0,1,3.19,4.57c0,.05-.05.09-.08.05a59.54,59.54,0,0,0-7.2-8.41C132.15,373.77,132.27,373.62,132.36,373.7Z" style="fill:#263238"></path><path d="M116.49,374.45A10.56,10.56,0,0,0,117.7,377a18.43,18.43,0,0,0,1.72,2.21s0,.11-.07.07a9.9,9.9,0,0,1-3-4.79C116.27,374.41,116.45,374.34,116.49,374.45Z" style="fill:#263238"></path><polygon points="76.86 415.88 77.92 428.38 81.15 466.51 115.73 466.51 118.96 428.38 120.02 415.88 76.86 415.88" style="fill:#455a64"></polygon><polygon points="76.86 415.88 77.92 428.38 118.96 428.38 120.02 415.88 76.86 415.88" style="fill:#263238"></polygon><rect x="73.47" y="410.86" width="49.94" height="11.99" transform="translate(196.88 833.72) rotate(180)" style="fill:#455a64"></rect></g><g id="freepik--character-1--inject-11"><path d="M194.16,347.48l-24.67,36c-4.75,6.84-8.79,12.93-10.59,16.27l0,.06a5.81,5.81,0,0,0-1,2.46.19.19,0,0,0,0,.08c1.08,2.79,54.69,42.35,57,43.1s4.65-5.85,3.8-9-14.62-27.53-14.62-27.53l24.3-36.15Z" style="fill:#d3766a"></path><path d="M176.85,372.72l35.84,23.38s34.87-43.66,43-70.78c5.75-19.32-29.71-113-29.71-113l-39-.82s29.68,90.4,27.27,99.43C211.24,322,176.85,372.72,176.85,372.72Z" style="fill:#263238"></path><path d="M212.66,298.92c-5.92-27-25.76-87.4-25.76-87.4l22.3.46Z" style="fill:#37474f"></path><path d="M157.91,402.24s0,.05,0,.06c1.09,2.8,54.7,42.36,57,43.11s4.66-5.85,3.8-9c-.47-1.74-4.68-9.61-8.47-16.5,3.5,6.68,10.42,26-45.27-29.86-2.73,4.06-4.91,7.49-6.1,9.7a.07.07,0,0,0,0,.06A5.93,5.93,0,0,0,157.91,402.24Z" style="fill:#263238"></path><path d="M143.08,274.6l-24.89-29.72c-5.76-6-13.92-15.27-15.46-15.46-3,.5-53.14,45.47-54.34,47.61s4.79,5.73,8.1,5.53,29.89-8.82,29.89-8.82l26.39,29.66Z" style="fill:#d3766a"></path><path d="M56.48,282.56c1.67-.11,9.14-2.31,16.2-4.49-8.07,1-23.57-.1,44.47-34.29-5.65-6-13-14.18-14.41-14.35-3,.5-53.15,45.46-54.35,47.6S53.18,282.76,56.48,282.56Z" style="fill:#263238"></path><path d="M225.62,212.33s-9,30.54-10.24,31.24c-1.41.79-7.94,2.86-10.22,3.76,0,0-14.68,62-26.33,79.37-4,6-23.12,12.62-32.9,6.85C123,320,94.4,282.75,94.4,282.75L125,253l29.1,32.21c6.15-12.82,8.63-38.22,8.63-38.22s.36-25,9-35.8Z" style="fill:#263238"></path><path d="M219.52,242.37a58.78,58.78,0,0,0-18.86,6.55c-.14.08-.08.34.09.28,6.31-2.09,12.55-4.37,18.84-6.49A.17.17,0,0,0,219.52,242.37Z" style="fill:#37474f"></path><path d="M217.05,217.84c0-.13-.23-.14-.26,0-.64,2.46-1.24,9.28-1.56,11.8-.17,1.3-.36,2.6-.52,3.9s-.28,2.63-.55,3.91a3.68,3.68,0,0,1-1.77,2.77,2,2,0,0,1-2.52-1,6.62,6.62,0,0,1-.44-3.53c.06-1.32.14-2.63.21-3.95.17-3,.86-10.19,1-13.19,0-.13-.2-.18-.22-.05-.64,2.94-1.52,10.07-1.82,13.05q-.24,2.33-.36,4.65a6.28,6.28,0,0,0,.64,3.6,3.13,3.13,0,0,0,2.56,1.67h0a1.66,1.66,0,0,0-.11.49,4.79,4.79,0,0,0,0,1.07,3.41,3.41,0,0,0,.1.46,1.75,1.75,0,0,0,.2.51l-.06-.12c.07.22.19.41.26.63a.08.08,0,0,0,.16,0c0-.32.13-.61.17-.93a5.37,5.37,0,0,0,0-1.06c0-.28-.08-.59-.1-.85,0-.09,0-.18,0-.28a3.59,3.59,0,0,0,2-1.29,7.17,7.17,0,0,0,1.21-3.48c.22-1.49.44-3,.6-4.47.19-1.71.36-3.42.52-5.14S217.18,219.47,217.05,217.84Z" style="fill:#37474f"></path><path d="M191.49,138.55c-3.91-1.59-14.86-.47-19.28,4.35s-5.63,13.65-4,14.81,9.5,1.83,15.31-.2S193.41,139.34,191.49,138.55Z" style="fill:#263238"></path><path d="M191.49,138.58c.14,0,.2-.23,0-.26-3.54-.7-7.55-.15-11.11.25a21,21,0,0,0-8.36,2.26,9.69,9.69,0,0,0-4.7,6.6c-.65,3.12-.85,7,.22,10,0,.09.19.09.18,0-.63-6.21-.82-13.69,5.75-16.72C179.09,138.15,185.56,138.85,191.49,138.58Z" style="fill:#263238"></path><path d="M169.09,156.27c-3.63-.15-14,5-16.72,11.52s1.07,17.41,2.68,18.44,10.58-4.12,13.95-8.43c2.26-2.89,1.54-6.83,1.39-10.65C170.18,161.52,169.65,156.29,169.09,156.27Z" style="fill:#263238"></path><path d="M171.28,177.31c2.23-6.7-.5-14.19-1.79-20.81,0-.06-.12-.05-.12,0,.28,6.19,2.95,12.16,2,18.41a11.6,11.6,0,0,1-5.93,8.88c-3,1.51-6.46,1.85-9.71,2.41-.21,0-.13.36.08.33C162.26,185.59,169,184.23,171.28,177.31Z" style="fill:#263238"></path><path d="M168.21,156.77c.2-.05.12-.36-.07-.3-5.46,1.52-12.14,4-15.72,8.63-3.88,5-1.93,11.35-.18,16.8a.06.06,0,0,0,.11,0c-1.71-5.52-3.34-12.28.91-17.12C156.92,160.6,163.05,158.3,168.21,156.77Z" style="fill:#263238"></path><path d="M156.65,185.14c-4.82,3.38-10.84,8.56-10,13.89s6.82,13.37,7.42,13.39,10.24-5.49,12.4-11.73S157.27,184.7,156.65,185.14Z" style="fill:#263238"></path><path d="M154.54,212.85c-3.86-3.56-8.35-8.41-8.4-14,0-5.41,5.78-10.27,9.78-13.12a0,0,0,0,0,0-.08c-4.35,2.57-10,7.37-10.17,12.86s4.45,11.56,8.73,14.51C154.52,213.07,154.62,212.92,154.54,212.85Z" style="fill:#263238"></path><path d="M156.1,210.2c-2.69-.3-7.89,1.19-11.24,4.77-5.73,6.12-7.42,3-16.16-.13-7.38-2.68-13.46,3.53-12.41,9.3,0,0,.95-5.7,6.66-5,6.83.83,15,14,25.6,10.65C162.33,225.47,156.1,210.2,156.1,210.2Z" style="fill:#263238"></path><path d="M151.28,211.59a.13.13,0,0,0-.06-.26,12.13,12.13,0,0,0-4.06,1.62c-1.62,1-2.7,2.58-4.22,3.71-3.88,2.87-8.35-.3-11.82-2.26-4.64-2.64-10-2.3-13.38,2.18a.06.06,0,0,0,.1.08A9.44,9.44,0,0,1,127,213.1c3.32.63,5.86,3.15,9,4.29,2.13.78,4.48,1.21,6.53,0a19.07,19.07,0,0,0,2.93-2.61A13.26,13.26,0,0,1,151.28,211.59Z" style="fill:#263238"></path><path d="M156.71,211.81c0-.06-.12,0-.11,0,.86,4.15,1.87,8.4.18,12.51-1.82,4.42-6.43,7-11.06,7.3-5.19.35-8-3.35-11.36-6.65-2.42-2.39-5-4.6-8.38-5.46-.1,0-.15.14,0,.18,5.06,1.9,8.21,5.87,12,9.43,3.14,2.91,6.72,3.53,10.8,2.3C157.78,228.75,159.3,219.83,156.71,211.81Z" style="fill:#263238"></path><path d="M188.28,131.1c-1.14-1.45-3.38.35-2.23,1.81S189.43,132.55,188.28,131.1Z" style="fill:#FFC727"></path><path d="M189.4,133.53a1.44,1.44,0,0,0-2.24,1.81A1.44,1.44,0,0,0,189.4,133.53Z" style="fill:#FFC727"></path><path d="M190.93,135.75a1.44,1.44,0,0,0-2.23,1.81C189.84,139,192.07,137.21,190.93,135.75Z" style="fill:#FFC727"></path><path d="M192.69,137.7a1.44,1.44,0,0,0-2.23,1.81C191.6,141,193.84,139.15,192.69,137.7Z" style="fill:#FFC727"></path><path d="M194.81,139.35a1.44,1.44,0,0,0-2.24,1.81A1.44,1.44,0,0,0,194.81,139.35Z" style="fill:#FFC727"></path><path d="M197.1,140.55a1.44,1.44,0,0,0-2.24,1.81C196,143.81,198.24,142,197.1,140.55Z" style="fill:#FFC727"></path><path d="M157.41,206.56c3.05-5.44,16.37-25.44,18.45-33.44s9.85-18.65,13.5-20.25.26,1.95-2.23,4.8-6.28,15.52-8.55,20.62S164,208.06,161.46,211,157.41,206.56,157.41,206.56Z" style="fill:#FFC727"></path><path d="M157.41,206.56c3.05-5.44,16.37-25.44,18.45-33.44s9.85-18.65,13.5-20.25.26,1.95-2.23,4.8-6.28,15.52-8.55,20.62S164,208.06,161.46,211,157.41,206.56,157.41,206.56Z" style="opacity:0.30000000000000004"></path><path d="M198.45,163.17c7.72,4.18,42.42,13.3,53.65,5.68,11.45-7.77,21.48-41.23,23-45.38,3.64-9.72-27-12.8-28.11-10.13-3.8,9.47-9,34.65-13.16,35.72-8.76,2.27-17.07,2.17-31,3.81C193.08,154,189.93,158.57,198.45,163.17Z" style="fill:#d3766a"></path><path d="M273.78,125.82c2-3.13,9.93-18.38,11.15-23.07s3.74-18.44.24-19.74-4.56,2.67-4.56,2.67.15-6-3.49-7S272,84,272,84s-.29-6.15-4-6.87-4.11,5.78-4.11,5.78,0-5.63-3.31-5c-4,.83-2.78,11.21-4.51,16.29-.39,1.15-9.64,22.8-9.64,22.8Z" style="fill:#d3766a"></path><path d="M264,82.31c.85,7.64-.09,11.13-3.39,17.94-.07.13.12.26.2.12,3.83-6.37,5.65-10.57,3.55-18.12C264.24,81.88,263.94,82,264,82.31Z" style="fill:#263238"></path><path d="M272,83.35c.19,8-.8,11.81-3.73,19.19,0,.11.13.19.18.09,3.48-7,5.2-11.24,3.95-19.22C272.31,83.05,272,83,272,83.35Z" style="fill:#263238"></path><path d="M280.45,86.05c-.37,7.77-1.28,12-5,18.78a.14.14,0,0,0,.24.15c4.51-6.56,5.69-11.8,5-18.89C280.64,85.6,280.48,85.56,280.45,86.05Z" style="fill:#263238"></path><path d="M244.28,121.32s-2.82-9.21-3.17-13.53S245.39,86.9,249,87.7c4.7,1,3.91,11.12,2.88,16,0,0,10.86,2.37,11.87,9.73S244.28,121.32,244.28,121.32Z" style="fill:#d3766a"></path><path d="M250.22,88.4c3.61,4,1.84,10.36,1.19,15.19a.45.45,0,0,0,.52.51c4.49,1.3,10.44,4.43,12,9.1a.11.11,0,0,0,.22,0c-1-5.24-6.61-8.8-11.62-9.9.74-4.93,2.23-11.37-2.29-14.88C250.23,88.35,250.2,88.38,250.22,88.4Z" style="fill:#263238"></path><path d="M226.26,212.34l-55-1.16s7.73-42.92,14-53.35c4.17-7,9.65-7.21,14.94-4.45,1.32.69,19,15.31,21.48,21.2,2.2,5.2-.91,12.17-.91,12.17Z" style="fill:#FFC727"></path><path d="M202,186.93a48.55,48.55,0,0,1,7.12-.45c1.19,0,2.36.11,3.54.22.59.05,1.17.09,1.76.12a8.17,8.17,0,0,0,1.85-.07c.05,0,.07.06,0,.08a12.37,12.37,0,0,1-1.71.36,11.88,11.88,0,0,1-1.69.07c-1.2,0-2.4-.09-3.6-.12-2.42-.07-4.84-.13-7.26,0C202,187.13,201.93,186.94,202,186.93Z" style="fill:#263238"></path><path d="M196.8,190.29a50.73,50.73,0,0,1,5.67-1.59c1-.21,1.93-.36,2.9-.49l1.4-.16c.52-.05,1,0,1.55-.09.05,0,.07.07,0,.08-.48.07-1,.22-1.43.32l-1.44.29-2.88.59c-1.93.38-3.84.77-5.75,1.21C196.73,190.48,196.71,190.33,196.8,190.29Z" style="fill:#263238"></path><path d="M189.43,154.12c6.23-1,2.22,27.53-5.36,36.73-4.71,5.73-6.72-10-4.92-17.09S186.72,154.56,189.43,154.12Z" style="fill:#d3766a"></path><path d="M190.44,166.35c-11.9,18.66-25.57,39.94-37.22,40.2-10.53.24-27.72-8.12-46.44-17.07-3.72-1.78,11.63-30,15.4-27.69,7.43,4.52,23.38,16.75,28.38,17.33,2.15.26,20.13-13.69,33.26-22.74C195.36,148.42,192.75,162.72,190.44,166.35Z" style="fill:#d3766a"></path><path d="M183.34,178.64l-.8.74q1.56-2.22,3-4.59a0,0,0,0,0-.05,0c-1.28,1.59-2.52,3.2-3.73,4.87-.57.79-2.47,3.69-3.13,4.56-.07.1.08.33.16.23.62-.84,2.6-3.39,3.13-4.12a7.28,7.28,0,0,0,.62-.51c.33-.3.64-.6.95-.93.61-.65,1.2-1.32,1.79-2,0,0,0,0,0,0C184.64,177.48,184,178.07,183.34,178.64Z" style="fill:#263238"></path><path d="M113.09,192c-3.6-.81-20-5.94-24.21-8.39s-15.7-10.37-14.15-13.76,5.11-1.34,5.11-1.34-4.33-4.12-2.46-7.39,7.3.1,7.3.1-4.14-4.55-2-7.68,7,1.17,7,1.17-4-4-1.17-5.84c3.39-2.22,9.9,5.95,14.72,8.31,1.1.53,22.95,9.27,22.95,9.27Z" style="fill:#d3766a"></path><path d="M89.2,154.32c4.81,6,8,7.79,15.1,10.26.14,0,.1.27,0,.23C97,163,92.76,161.35,88.9,154.53,88.71,154.2,89,154,89.2,154.32Z" style="fill:#263238"></path><path d="M84.31,160.7c5.53,5.8,8.92,7.77,16.22,10.91.1,0,0,.23-.07.19C93,169.32,88.83,167.55,84.06,161,83.84,160.73,84.05,160.44,84.31,160.7Z" style="fill:#263238"></path><path d="M80.22,168.63c5.76,5.22,9.38,7.55,16.86,9.68a.14.14,0,0,1-.06.28c-7.84-1.44-12.38-4.31-16.94-9.77C79.77,168.44,79.85,168.3,80.22,168.63Z" style="fill:#263238"></path><rect x="56.97" y="131.25" width="60.99" height="8.49" transform="translate(-66.93 88.91) rotate(-40.37)" style="fill:#37474f"></rect><rect x="71.21" y="134.5" width="60.99" height="35.48" transform="translate(-74.39 102.12) rotate(-40.37)" style="fill:#455a64"></rect><rect x="56.97" y="132.13" width="60.99" height="6.73" transform="translate(-66.93 88.91) rotate(-40.37)" style="fill:#fff"></rect><path d="M68.52,154.2C82.33,142,97.75,128.91,112,117.25c-13.81,12.17-29.23,25.28-43.46,36.95Z" style="fill:#dbdbdb"></path><path d="M67.66,153.19c13.81-12.17,29.23-25.28,43.47-36.95-13.81,12.17-29.23,25.28-43.47,37Z" style="fill:#dbdbdb"></path><path d="M66.81,152.18C80.62,140,96,126.9,110.27,115.24,96.47,127.41,81,140.51,66.81,152.18Z" style="fill:#dbdbdb"></path><path d="M66,151.18C79.76,139,95.18,125.9,109.42,114.23c-13.81,12.17-29.23,25.28-43.47,37Z" style="fill:#dbdbdb"></path><path d="M130.73,167.91s-4.53-8.5-7.34-11.79-17.81-11.73-19.81-8.59c-2.59,4.05,5.11,10.62,9.3,13.34,0,0-6,9.37-1.48,15.28S130.73,167.91,130.73,167.91Z" style="fill:#d3766a"></path><path d="M103.23,148.88c.3,5.39,6,8.61,9.91,11.56a.44.44,0,0,1,0,.73c-2.25,4.09-4.23,10.52-2,14.94a.11.11,0,0,1-.2.11c-3-4.41-1.55-10.89,1.2-15.21-4-3-9.63-6.45-8.92-12.13C103.18,148.84,103.23,148.84,103.23,148.88Z" style="fill:#263238"></path><rect x="164.65" y="230.34" width="38.18" height="5.27" transform="translate(474.75 175.06) rotate(117.01)" style="fill:#FFC727"></rect><rect x="156.18" y="221.78" width="38.18" height="13.75" transform="translate(458.58 176.33) rotate(117.01)" style="fill:#FFC727"></rect><rect x="156.18" y="221.78" width="38.18" height="13.75" transform="translate(458.58 176.33) rotate(117.01)" style="opacity:0.1"></rect><rect x="175.94" y="242.15" width="3.56" height="5.27" transform="translate(476.52 197.61) rotate(117.01)" style="fill:#455a64"></rect><rect x="179.21" y="237.87" width="1.38" height="5.27" transform="translate(475.87 189.43) rotate(117.01)" style="fill:#455a64"></rect><rect x="155.75" y="225.28" width="41.02" height="6.59" transform="translate(459.95 175.34) rotate(117.01)" style="fill:#c7c7c7"></rect><rect x="181.51" y="211.06" width="3.99" height="6.59" transform="translate(457.81 148.19) rotate(117.01)" style="fill:#FFC727"></rect><rect x="180.72" y="214.9" width="1.66" height="6.59" transform="translate(458.39 155.52) rotate(117.01)" style="fill:#FFC727"></rect><rect x="168.12" y="237.33" width="3.99" height="6.59" transform="translate(461.75 198.33) rotate(117.01)" style="fill:#FFC727"></rect><rect x="161.54" y="203.74" width="12.45" height="41.06" transform="translate(215.4 500.27) rotate(-152.99)" style="fill:#ebebeb"></rect><rect x="150.38" y="223.4" width="37.87" height="5.47" transform="translate(447.67 177.97) rotate(117.01)" style="fill:#455a64"></rect><rect x="141.75" y="214.8" width="37.87" height="13.88" transform="translate(431.22 179.26) rotate(117.01)" style="fill:#37474f"></rect><rect x="150.38" y="223.97" width="37.87" height="4.34" transform="translate(447.67 177.97) rotate(117.01)" style="fill:#fff"></rect><path d="M175.66,210.87c-4.89,10.33-10.6,21.53-16.08,31.56,4.89-10.33,10.6-21.53,16.08-31.56Z" style="fill:#dbdbdb"></path><path d="M176.42,211.26c-4.9,10.32-10.6,21.52-16.08,31.55,4.89-10.33,10.6-21.52,16.08-31.55Z" style="fill:#dbdbdb"></path><path d="M177.18,211.64c-4.9,10.33-10.6,21.53-16.09,31.56,4.9-10.33,10.61-21.53,16.09-31.56Z" style="fill:#dbdbdb"></path><path d="M177.94,212c-4.9,10.33-10.61,21.53-16.09,31.56,4.9-10.33,10.61-21.53,16.09-31.56Z" style="fill:#dbdbdb"></path><path d="M157.41,206.56c-2.21-1.81-29,35.2-28.23,42.35.64,5.6,26.56,25,45.95,23.42,7.26-.6,21.66-48.32,21.33-50.64-.24-1.62-11.88,1.36-23.58-2.75C167.72,217.13,163.46,211.54,157.41,206.56Z" style="fill:#FFC727"></path><path d="M157.41,206.56c-2.21-1.81-29,35.2-28.23,42.35.64,5.6,26.56,25,45.95,23.42,7.26-.6,21.66-48.32,21.33-50.64-.24-1.62-11.88,1.36-23.58-2.75C167.72,217.13,163.46,211.54,157.41,206.56Z" style="opacity:0.30000000000000004"></path><path d="M147.65,248.45a72.93,72.93,0,0,1-5.32-5,46.79,46.79,0,0,1,3.06-5.41s0-.05,0,0a55.23,55.23,0,0,0-3.3,5.13c-.58-.62-1.15-1.26-1.71-1.93a55.78,55.78,0,0,1,4.69-7.76c.05-.07-.05-.17-.1-.1a86.52,86.52,0,0,0-5,7.37c-.65-.81-1.28-1.65-1.89-2.55a.05.05,0,1,0-.09.06,26.46,26.46,0,0,0,1.73,2.93c-.65,1.11-1.24,2.25-1.79,3.41-.7-.87-1.37-1.78-2-2.74a.08.08,0,0,0-.14.08,29,29,0,0,0,2,3.06,33.19,33.19,0,0,0-1.38,3.56c-.07.22.29.34.39.13.49-1,1-2.05,1.46-3.07.54.68,1.1,1.34,1.7,2a32.74,32.74,0,0,0-1.91,6c-.05.25.31.31.39.08.61-1.91,1.26-3.77,2-5.61a23.86,23.86,0,0,0,4.21,3.42c.13.08.27-.12.15-.22a51.43,51.43,0,0,1-4.16-3.72c.46-1.14.93-2.27,1.44-3.37a22.46,22.46,0,0,0,5.5,4.54A.14.14,0,0,0,147.65,248.45Zm-9.24-3.3c.55-1.15,1.1-2.3,1.68-3.44.5.71,1,1.4,1.6,2.06-.58,1.07-1.09,2.17-1.58,3.28C139.52,246.44,139,245.8,138.41,245.15Z" style="opacity:0.1"></path><path d="M187.56,242.59q-1-.24-1.89-.51c.3-.87.58-1.75.87-2.63a9.4,9.4,0,0,0,1.76.31c.14,0,.16-.22,0-.24-.57-.12-1.12-.28-1.67-.44.57-1.79,1.12-3.59,1.68-5.37,0-.08-.11-.11-.14,0-.56,1.79-1.21,3.55-1.88,5.29-.48-.15-.95-.33-1.42-.52,1-2.74,1.79-5.53,2.6-8.27,0-.1-.13-.13-.16,0-.93,2.72-2,5.39-3,8.07a38.87,38.87,0,0,1-4.13-2.17s-.07,0,0,.06a32.77,32.77,0,0,0,4,2.45c-.35.89-.7,1.79-1,2.68a20.39,20.39,0,0,1-3.18-1.57s-.08,0,0,.07A21.26,21.26,0,0,0,183,241.5c-.45,1.19-.89,2.39-1.3,3.59-.07.21.27.32.36.13.56-1.12,1.07-2.28,1.55-3.45a14,14,0,0,0,1.37.49c-1,2.45-2,4.89-2.85,7.37-.08.21.27.33.37.13a60.2,60.2,0,0,0,3-7.34,11.79,11.79,0,0,0,2,.36C187.64,242.79,187.69,242.62,187.56,242.59Zm-3.8-1.12c.35-.88.68-1.76,1-2.65a12,12,0,0,0,1.41.53l-1,2.58Z" style="opacity:0.1"></path><path d="M196.46,221.69c3.24-8.3,8.51-16.81,13.33-25.65s4.48-31.08,1.44-36-12.38-8.82-15.33-8.21,9.66,4.33,11.56,8.63.93,28.26-.8,30.6-15.81,28.22-15.85,30.3S196.46,221.69,196.46,221.69Z" style="fill:#FFC727"></path><path d="M196.46,221.69c3.24-8.3,8.51-16.81,13.33-25.65s4.48-31.08,1.44-36-12.38-8.82-15.33-8.21,9.66,4.33,11.56,8.63.93,28.26-.8,30.6-15.81,28.22-15.85,30.3S196.46,221.69,196.46,221.69Z" style="opacity:0.30000000000000004"></path><path d="M191.9,155.07c.37,1,6.13,7.1,10.82,6.3,1.53-.27.46-8.68.46-8.68l.06-.63.87-8.94-11-5.3-1.58-.68s-.08,2.46-.14,5.52c0,.15,0,.29,0,.44s0,.34,0,.5c0,.46,0,.93,0,1.39s0,.7,0,1.07,0,.74,0,1.12A57.87,57.87,0,0,0,191.9,155.07Z" style="fill:#d3766a"></path><path d="M191.36,142.66a18,18,0,0,0,11.88,9.4l.87-8.94-11-5.3-1.58-.68S191.42,139.6,191.36,142.66Z" style="fill:#263238"></path><path d="M211.81,123.78c7.57,13.82.15,19.92-2.84,21.55-2.71,1.48-12.12,6.17-21.08-6.8S183,117.67,189,114,204.24,110,211.81,123.78Z" style="fill:#d3766a"></path><path d="M207.18,123.41a9.44,9.44,0,0,1-1,.29,1.77,1.77,0,0,1-1.13.1.58.58,0,0,1-.32-.61,1.4,1.4,0,0,1,1.07-.92,2,2,0,0,1,1.47,0A.6.6,0,0,1,207.18,123.41Z" style="fill:#263238"></path><path d="M197.65,128.6c.31-.21.56-.46.85-.69a1.75,1.75,0,0,0,.72-.87.55.55,0,0,0-.32-.61,1.39,1.39,0,0,0-1.36.34,2.08,2.08,0,0,0-.81,1.24A.6.6,0,0,0,197.65,128.6Z" style="fill:#263238"></path><path d="M201.65,130.88s0,.08,0,.12c.54.93,1,2.08.34,2.86,0,0,0,.07,0,0C203,133.19,202.32,131.67,201.65,130.88Z" style="fill:#263238"></path><path d="M200.27,130.36c-1.57.71,0,3.81,1.44,3.15S201.6,129.76,200.27,130.36Z" style="fill:#263238"></path><path d="M199.75,130.82c-.19.32-.3.76-.61,1s-.8,0-1.21-.14c0,0-.05,0,0,.06.29.6.82,1.09,1.5.86a1.28,1.28,0,0,0,.63-1.61C200,130.82,199.82,130.7,199.75,130.82Z" style="fill:#263238"></path><path d="M206.81,127.78s.1,0,.12,0c.44,1,1.11,2,2.14,1.92,0,0,.05,0,0,.06C208,130.17,207.07,128.77,206.81,127.78Z" style="fill:#263238"></path><path d="M207.18,126.35c1.49-.88,3.14,2.17,1.75,3S205.93,127.08,207.18,126.35Z" style="fill:#263238"></path><path d="M207.92,126.2c.33,0,.73.2,1,.07s.41-.63.45-1.06c0,0,0,0,.07,0,.33.58.46,1.29,0,1.7s-1.1.08-1.55-.43C207.8,126.4,207.79,126.19,207.92,126.2Z" style="fill:#263238"></path><path d="M205.77,138.4c.34.12.71.34,1.08.21a2.79,2.79,0,0,0,1-.72,0,0,0,0,1,.06,0,1.44,1.44,0,0,1-1,1.08,1.15,1.15,0,0,1-1.15-.52A.06.06,0,0,1,205.77,138.4Z" style="fill:#263238"></path><path d="M208.66,134.94a4.34,4.34,0,0,1-.81,2.07,2,2,0,0,1-1,.67c-.86.25-1.29-.42-1.5-1.09a4.42,4.42,0,0,1-.2-1.09A5.65,5.65,0,0,0,208.66,134.94Z" style="fill:#263238"></path><path d="M207.85,137a2,2,0,0,1-1,.67c-.86.25-1.29-.42-1.5-1.09A2,2,0,0,1,207.85,137Z" style="fill:#ff9bbc"></path><path d="M208,132.9s.93,1.32,1.27,2c0,.07-.11.18-.33.31,0,0,0,0,0,0a3.6,3.6,0,0,1-3.72.4c-.08,0,0-.16.06-.15a5.38,5.38,0,0,0,3.34-.66c0-.21-1.66-2.22-1.56-2.28a6.7,6.7,0,0,1,1.7-.44c-1.85-2.81-4.15-5.31-6-8.14a.1.1,0,0,1,.16-.13,54,54,0,0,1,6.79,8.49C210,132.67,208.32,132.87,208,132.9Z" style="fill:#263238"></path><path d="M188.43,138.94c1.54-.86,3.54-7.24-.06-15,0,0,2.76,7.15,2.73,8.41s1.11-3.58-1.71-9.84a27.93,27.93,0,0,0,7.94.2c3.31-.61,5.08-1.5,5.19-1.81s-4.85.42-6.66-.35c0,0,9.51-.17,13.22-1.64.43-.17-3.24-7.48-10.52-8.4s-14.12,5.81-15.37,9.23c0,0-2.13,1.36-2.86,6.95C179.54,132.76,186.77,139.88,188.43,138.94Z" style="fill:#263238"></path><path d="M202.12,137.85a5.43,5.43,0,1,1,2.16-8.3h0a5.44,5.44,0,0,1-1,7.62A5,5,0,0,1,202.12,137.85Zm-4-9.31a4.51,4.51,0,0,0-1,.59,4.72,4.72,0,1,0,1-.59Z" style="fill:#FFC727"></path><path d="M212.46,131.76c-1.91.82-4.49-.39-5.9-2.85a6.53,6.53,0,0,1-.9-3.86,3.38,3.38,0,0,1,5-2.89,6.45,6.45,0,0,1,2.89,2.72c1.49,2.59,1.14,5.61-.8,6.72A2.29,2.29,0,0,1,212.46,131.76ZM208,122.7a1.34,1.34,0,0,0-.24.12,2.89,2.89,0,0,0-1.34,2.31,5.79,5.79,0,0,0,.81,3.42c1.29,2.25,3.63,3.34,5.22,2.42s1.82-3.48.53-5.73a5.82,5.82,0,0,0-2.56-2.42A3,3,0,0,0,208,122.7Z" style="fill:#FFC727"></path><path d="M204.49,130.16l-.58-.21c.31-.85,1.31-2.33,2.88-1.85l-.18.58C205.21,128.25,204.52,130.08,204.49,130.16Z" style="fill:#FFC727"></path><path d="M185.93,142.21l-.62,0c0-.28-.09-2.81,1-3.68s8.5-4.25,8.82-4.39l.26.56c-2.15,1-7.91,3.67-8.69,4.3S185.9,141.52,185.93,142.21Z" style="fill:#FFC727"></path><path d="M190.66,143.64a2.73,2.73,0,0,0,.74-.12,2.52,2.52,0,0,0,1.41-.92,2.85,2.85,0,0,0,.36-.66,3.27,3.27,0,0,0,.19-1.05l-2.5-3.5s-5.13-3.12-6.68-1.09S187.87,143.81,190.66,143.64Z" style="fill:#d3766a"></path><path d="M185.72,137.83s0,.07,0,.07c2-.06,3.56,1.11,4.89,2.46a1.47,1.47,0,0,0-2.18.51s.05.1.09.07a1.63,1.63,0,0,1,1.88-.2,8.29,8.29,0,0,1,1.38,1c.14.11.38-.09.25-.23l0,0C191.1,139.3,188.12,137,185.72,137.83Z" style="fill:#263238"></path><path d="M190.59,143a.73.73,0,0,0,1.2-.84.73.73,0,0,0-1.2.84Z" style="fill:#fff"></path><path d="M188.78,142.54a.51.51,0,0,0,.72.13.52.52,0,0,0,.12-.72.51.51,0,1,0-.84.59Z" style="fill:#fff"></path></g><g id="freepik--character-2--inject-11"><path d="M413.41,271.55c1.08,2.31-5.46,5.55-8.87,5.08a68.83,68.83,0,0,1-8.56-2.91c-9.07-3.46-21.8-8.72-21.8-8.72l-5.79,5.75-29.8,24.17-28.36-31.76s13.86-13.18,27.18-25.32c2-1.87,4.08-3.69,6-5.46l.37-.33c9-8,16.55-14.35,17.68-14.05C364.55,218.77,412.33,269.23,413.41,271.55Z" style="fill:#ffc4c0"></path><path d="M413.41,271.55c1.08,2.32-5.46,5.55-8.87,5.08a67.77,67.77,0,0,1-8.56-2.92c-9.07-3.44-21.8-8.71-21.8-8.71l-5.8,5.76-1,.8L337,238.23l.43-.4,6-5.45c.12-.12.25-.23.37-.33,9-8,16.55-14.35,17.69-14.06C364.55,218.76,412.33,269.23,413.41,271.55Z" style="fill:#ebebeb"></path><path d="M414.34,272.2c-1.06-2.38-49.07-54.37-52.16-55.19-1.16-.33-9.15,6.23-18.56,14.42l-.3.26,30.6,33.89.56-.54s27.28,11.68,30.77,12.22S415.42,274.57,414.34,272.2Z" style="fill:#FFC727"></path><path d="M414.34,272.2c-1.06-2.38-49.07-54.37-52.16-55.19-1.16-.33-9.15,6.23-18.56,14.42l-.3.26,30.6,33.89.56-.54s27.28,11.68,30.77,12.22S415.42,274.57,414.34,272.2Z" style="opacity:0.1"></path><path d="M411.78,273.47c-8.3-8.56-41-43.89-48.57-53-.06-.07,0-.12.06,0,8.42,8.31,40.83,43.9,48.66,52.91C412.09,273.53,412,273.65,411.78,273.47Z" style="fill:#263238"></path><path d="M377.47,269.23c-3.83-2.86-7.2-7.57-7.17-12.47,0-.19.27-.19.33,0a66.26,66.26,0,0,0,7.26,12.09A.3.3,0,0,1,377.47,269.23Z" style="fill:#263238"></path><path d="M381.26,270.33c-3.82-2.85-7.19-7.56-7.17-12.47,0-.19.28-.18.34,0a65.6,65.6,0,0,0,7.26,12.09A.3.3,0,0,1,381.26,270.33Z" style="fill:#263238"></path><path d="M385.06,271.43c-3.82-2.85-7.19-7.56-7.17-12.46,0-.19.27-.19.34,0A66.26,66.26,0,0,0,385.49,271,.3.3,0,0,1,385.06,271.43Z" style="fill:#263238"></path><path d="M377.57,274.58c-.36-4.2-2.51-8.09-4.09-11.91a.59.59,0,0,0-.93-.14.12.12,0,0,0-.2,0,25,25,0,0,0-3,12.61c.12,2.56,1.61,5.85,4.73,5.49C377,280.31,377.78,277,377.57,274.58Zm-2,3.44c-3.23,4.1-5-1.8-5-3.69a27.9,27.9,0,0,1,.28-3.65,74.34,74.34,0,0,1,1.59-7.4c.66,1.93,1.48,3.78,2.2,5.67C375.55,271.22,377.38,275.75,375.61,278Z" style="fill:#263238"></path><path d="M356.47,255.9c-1.39,2.82,1.23,5.32,3.61,6.28A24.94,24.94,0,0,0,373,263.53a.13.13,0,0,0,.1-.18.58.58,0,0,0,.17-.92c-3.08-2.75-6-6.08-9.87-7.8C361.12,253.62,357.77,253.24,356.47,255.9Zm11.23,3.31c1.55,1.32,3,2.7,4.63,4-2.51-.27-5-.43-7.51-.95a26.73,26.73,0,0,1-3.54-.94c-1.78-.64-6.76-4.26-1.82-5.94C362.18,254.42,365.86,257.64,367.7,259.21Z" style="fill:#263238"></path><path d="M364.78,280S297.13,324.83,268,330.18c-13.92,2.56-29.64-10.67-28.21-25.88,1.33-14.19,35.16-46.15,42.61-57,2.35-3.4,5.5-25.71,5.5-25.71L320.27,227s-.29,15.68-1.54,24.5a2.56,2.56,0,0,1-.09.45l10.25-9Z" style="fill:#37474f"></path><path d="M340.85,266.11c-5.37-5.31-11-10.36-16.37-15.61-.11-.1-.28,0-.18.14,5.26,5.38,10.33,10.92,15.69,16.2s10.93,10.38,16.41,15.56c.14.13.37-.06.23-.2C351.36,276.85,346.19,271.39,340.85,266.11Z" style="fill:#263238"></path><path d="M318.93,252.22c-1.43,1.75-2.71,3.65-4.05,5.46s-2.67,3.57-4.06,5.32c-2.81,3.51-5.76,6.92-8.79,10.25a202.78,202.78,0,0,1-19.58,18.86c-3.88,3.25-7.81,6.48-12,9.35-.09.06,0,.2.11.13,3-2.06,6.09-4.1,9-6.28-1.33,1.76-2.62,3.57-3.95,5.34-.06.09.07.2.14.11,1.48-1.87,3-3.71,4.44-5.6a.19.19,0,0,0-.05-.28l1.51-1.13q5.43-4.22,10.49-8.86a158.32,158.32,0,0,0,18.33-20q2.34-3,4.56-6.15a60.32,60.32,0,0,0,4.12-6.38C319.3,252.22,319,252.08,318.93,252.22Z" style="fill:#263238"></path><path d="M444.19,250.59c1.58,2-4,6.65-7.47,7a69.82,69.82,0,0,1-9-.87c-9.63-1.28-23.23-3.48-23.23-3.48l-4.31,6.94-22.57,29.72-35.77-23.76s10.46-16,20.63-30.89c1.57-2.28,3.12-4.52,4.64-6.7l.27-.4c6.92-9.86,12.82-17.77,14-17.74C384.51,210.44,442.61,248.58,444.19,250.59Z" style="fill:#ffc4c0"></path><path d="M444.19,250.59c1.58,2-4,6.66-7.47,7a69.51,69.51,0,0,1-9-.87c-9.62-1.28-23.23-3.48-23.23-3.48l-4.3,6.94-.64.84L361.9,236.08l.59-.85c1.56-2.28,3.11-4.52,4.62-6.7.1-.13.19-.27.28-.4,6.92-9.86,12.82-17.76,14-17.74C384.51,210.43,442.6,248.58,444.19,250.59Z" style="fill:#ebebeb"></path><path d="M445.06,250.7c-1.61-2-60.82-40.81-64-40.85-1.21,0-7.36,8.26-14.51,18.5a3.62,3.62,0,0,1-.22.32l37.92,25.43.41-.65s29.3,4.69,32.82,4.37S446.68,252.74,445.06,250.7Z" style="fill:#FFC727"></path><path d="M442.89,252.55c-10.14-6.28-50.45-32.6-60-39.59-.08-.06,0-.11,0-.06,10.19,6,50.28,32.66,60.07,39.49C443.2,252.53,443.1,252.69,442.89,252.55Z" style="fill:#263238"></path><path d="M408.57,256.78c-4.41-1.84-8.82-5.59-10-10.35,0-.18.22-.25.32-.12a65.73,65.73,0,0,0,10,10A.3.3,0,0,1,408.57,256.78Z" style="fill:#263238"></path><path d="M412.52,256.92c-4.41-1.83-8.82-5.58-10-10.34,0-.19.22-.25.32-.13a66.25,66.25,0,0,0,10,10A.3.3,0,0,1,412.52,256.92Z" style="fill:#263238"></path><path d="M416.47,257.07c-4.4-1.84-8.81-5.58-10-10.35-.05-.18.21-.24.32-.12a66.19,66.19,0,0,0,10,10A.3.3,0,0,1,416.47,257.07Z" style="fill:#263238"></path><path d="M410,261.94c-1.37-4-4.4-7.23-6.86-10.55a.58.58,0,0,0-.94.09.12.12,0,0,0-.18.08,25,25,0,0,0,.16,12.95c.73,2.46,3,5.29,5.92,4.18C410.84,267.63,410.76,264.26,410,261.94Zm-1.07,3.82c-2.13,4.76-5.27-.53-5.75-2.36a27.77,27.77,0,0,1-.61-3.61c-.29-2.52-.22-5-.26-7.57,1.11,1.71,2.35,3.31,3.52,5C407.2,259.17,410.07,263.13,408.9,265.76Z" style="fill:#263238"></path><path d="M385,249c-.66,3.07,2.49,4.86,5,5.21a25,25,0,0,0,12.82-1.82.13.13,0,0,0,.06-.2.59.59,0,0,0-.06-.94c-3.66-1.92-7.34-4.42-11.48-5.16C388.92,245.62,385.57,246.06,385,249Zm11.7.48c1.83.9,3.6,1.88,5.45,2.72-2.5.35-5,.8-7.51.9a28.1,28.1,0,0,1-3.67-.05c-1.87-.19-7.58-2.49-3.2-5.32C390.14,246.13,394.49,248.37,396.66,249.44Z" style="fill:#263238"></path><path d="M293.84,222.59l44.64,7.63s8.16,13.76,9,22.64-30.2,43.2-30.2,43.2l38.11-53.91,43.43,27.79s-53.15,55.43-88.44,74.26c-13.24,7.07-31.91-3.89-33-21.21-1.16-18.22,19.9-69.39,19.9-69.39Z" style="fill:#37474f"></path><path d="M354,243c-10.86,17.7-22.07,35.17-34.23,52-1.69,2.34-3.38,4.67-5.1,7s-3.44,4.94-5.38,7.22c-.1.11.09.26.18.14,1.54-2.16,3.31-4.15,4.94-6.24s3.18-4.1,4.74-6.18l2-2.7-.28.72c-.45,1.08-.89,2.16-1.31,3.26-.86,2.25-1.46,4.64-2.49,6.82-.07.13.15.22.2.09.86-2.26,2.11-4.36,3.06-6.58q.68-1.62,1.29-3.27a19.73,19.73,0,0,0,1-3c1.95-2.66,3.89-5.32,5.8-8q9-12.72,17.19-26c3.05-4.93,6-9.92,8.84-15C354.57,243,354.12,242.68,354,243Z" style="fill:#263238"></path><path d="M373,261c-6.44-3.93-13.05-7.56-19.52-11.43-.12-.07-.26.1-.13.18,6.35,4,12.56,8.25,19,12.16s13,7.59,19.55,11.37c.17.1.35-.14.18-.25C385.69,269.05,379.41,264.93,373,261Z" style="fill:#263238"></path><path d="M297.24,253.6c-2.83,5.44-10.85,26.83-12.9,32.61s-3.83,11.56-5.3,17.46c-.74,3-1.36,6-1.89,9a49.42,49.42,0,0,0-.87,8.74,23.72,23.72,0,0,0,4.94,14.6,25.07,25.07,0,0,0,6.14,5.66A30.15,30.15,0,0,0,295,345c.1,0,.14-.15,0-.17a19.06,19.06,0,0,1-6.88-3.41,25.16,25.16,0,0,1-10.39-18.87c-.28-5.79,1.07-11.66,2.33-17.27a177.74,177.74,0,0,1,4.81-17.14c1.06-3.16,2.19-6.3,3.36-9.42s8.25-21.77,9.32-24.94A.18.18,0,0,0,297.24,253.6Z" style="fill:#263238"></path><path d="M308.62,256.17a44.53,44.53,0,0,0-10.46-2.67,104,104,0,0,0-10.55-1.13c-.1,0-.1.15,0,.17,3.58.49,7.14,1.14,10.67,1.88s6.84,1.67,10.3,2.12C308.78,256.57,308.79,256.24,308.62,256.17Z" style="fill:#263238"></path><path d="M338.94,250.33a59.58,59.58,0,0,1-7.79.23c-2.15-.05-4.36-.1-6.28-1.21-3.74-2.16-5.68-6.51-6.9-10.47,0-.09-.19,0-.16.05,1.11,4.33,1.92,9.35,6.14,11.84a11.79,11.79,0,0,0,6.82,1.26,41.56,41.56,0,0,0,8.2-1.51A.1.1,0,0,0,338.94,250.33Z" style="fill:#263238"></path><path d="M344.12,252.25a53.83,53.83,0,0,0-2.69-7.24q-1.59-3.63-3.47-7.12c-1.42-2.64-3-5.21-4.56-7.75a.09.09,0,0,0-.16.08c2.42,4.34,4.7,8.77,6.76,13.3q1.53,3.36,2.88,6.81a15,15,0,0,1,1.3,7,12.4,12.4,0,0,1-2.77,6.66s0,.05,0,0A12.75,12.75,0,0,0,344.12,252.25Z" style="fill:#263238"></path><path d="M355.45,255c-2.25,2.55-4.3,5.29-6.39,8s-4.2,5.36-6.28,8.05c-4.16,5.39-8.26,10.83-12.36,16.26-2.33,3.09-4.59,6.23-6.86,9.35-.07.09.06.2.13.11q12.81-15.9,25-32.28c2.31-3.1,4.72-6.15,6.85-9.37C355.58,255.06,355.5,255,355.45,255Z" style="fill:#263238"></path><path d="M294.54,228.68c.11,2.82.48,11.37.69,14.19.09,1.29.18,2.61.39,3.89.18,1.08.53,2.34,1.64,2.81,1.28.54,1.9-.52,2-1.64a37.28,37.28,0,0,0,.1-3.81c0-1.45-.31-14.72-.31-14.76s0-.13.11-.18a.09.09,0,0,1,.12,0c.23.2,1,11.93,1,13.29s.1,2.72.14,4.08a6,6,0,0,1-.37,3,2.3,2.3,0,0,1-2.46,1.27c0,.1.06.19.08.29.06.29.09.59.13.88s.08.6.1.9a3.09,3.09,0,0,1,0,.43c0,.16-.08.3-.09.46s-.38.33-.45.07-.12-.28-.17-.43a2.84,2.84,0,0,1-.1-.49c0-.29-.05-.57-.07-.86s0-.58,0-.86a4.4,4.4,0,0,1,.05-.51,3.13,3.13,0,0,1-1.42-.91,5.27,5.27,0,0,1-1.09-2.79c-.17-1.2-.24-2.42-.32-3.63-.18-3-.58-11.74-.23-14.73A.25.25,0,0,1,294.54,228.68Z" style="fill:#263238"></path><path d="M332.13,126.27c-4.19-2.49-14.21-4.3-21,5.79-9.68,14.33,2.07,44.57,4.91,48.93,0,0,23,2.62,39.54-12.58,0,0-15.1-18.8-15.86-30A15.11,15.11,0,0,0,332.13,126.27Z" style="fill:#263238"></path><path d="M344.28,149.74c.1.16.2.32.31.48a39.75,39.75,0,0,0,4.63,5.58,24.12,24.12,0,0,0,5.44,4.29s.11-.05,0-.08a21.51,21.51,0,0,1-5.24-4.74,56.94,56.94,0,0,1-4.2-5.46,55.37,55.37,0,0,1-6.35-12.45c0-.09-.19,0-.16,0,.17.63.35,1.26.55,1.88a.08.08,0,0,0-.09.1,62.18,62.18,0,0,0,5,12,47.12,47.12,0,0,0,8,10,59.1,59.1,0,0,0,5.51,4.72s.06,0,0-.05A60.77,60.77,0,0,1,344.28,149.74Z" style="fill:#263238"></path><path d="M314.58,129.39c-9.42,9.09-9.67,22.89-7,34.51a56.15,56.15,0,0,0,3.38,10.45.05.05,0,0,0,.1,0,65.69,65.69,0,0,1-3.78-18.57c-.31-5.94-.05-12.22,2.13-17.9a22.84,22.84,0,0,1,5.3-8.3C314.78,129.46,314.66,129.31,314.58,129.39Z" style="fill:#263238"></path><path d="M312.76,229.91c.48.63,41.61,3.6,43.59,3.09a1.77,1.77,0,0,0,.28-.11c2.45-1.07,14-11.08,14.83-11.92,1.6-1.56-9.55-28.47-18.84-44.57-3.1-5.37-8.12-10-9.55-11.45s-27-2.74-31.58-.78c-2,.83-6.87,5.56-7,6.43h0C304.32,171.87,312.29,229.26,312.76,229.91Z" style="fill:#455a64"></path><path d="M312.76,229.91c.48.63,41.61,3.6,43.59,3.09a1.77,1.77,0,0,0,.28-.11c-3.66-10.78-20.85-61.36-21.37-61.69s-24.93-.86-30.79-.59C304.32,171.87,312.29,229.26,312.76,229.91Z" style="fill:#263238"></path><path d="M329.62,166.62c.42-.38.85-6,.12-7.1s-10.63-.92-11.23.13-1,6.63-.75,6.84,1.92.45,2.15.1.34-5,.52-5.22,7.05-.5,7.28-.14-.48,5-.21,5.23S329.21,167,329.62,166.62Z" style="fill:#37474f"></path><path d="M313.52,163.74c-.61-17.67-2.32-32.06-5.14-53.89C306.9,98.48,303.85,79.9,303.13,75c-1-6.46-31.28,4.57-30.15,8.91.74,2.83,4.5,20,9.55,33.16,6.49,16.88,10.34,31.61,18,49.42C306.32,179.93,313.93,175.44,313.52,163.74Z" style="fill:#ffc4c0"></path><path d="M276.57,92.81c-4.66-4.42-16.61-23.14-18.14-27.35s-5.05-16.65-1.94-18.15,4.42,2.06,4.42,2.06-.8-6,2.61-6.71c2.72-.57,4.85,4.34,4.85,4.34s-.54-6.62,2.94-6.89c3.16-.25,4.12,5.62,4.12,5.62s.11-5.58,3.21-5.24c3.72.42,3.53,10.08,5.57,14.6.46,1,16.45,22.58,16.45,22.58Z" style="fill:#ffc4c0"></path><path d="M275.65,45.53c.6,7.25,1.06,10.24,4.69,16.22.07.11-.09.24-.17.13-4.09-5.53-4.89-9-4.86-16.37C275.31,45.15,275.63,45.19,275.65,45.53Z" style="fill:#263238"></path><path d="M268.44,47c.51,7.4,1.89,10.68,5.23,17.22.05.09-.11.18-.16.09-3.82-6.14-5.77-9.89-5.32-17.35C268.21,46.65,268.41,46.69,268.44,47Z" style="fill:#263238"></path><path d="M261.08,49.7c1,7.12,2.22,10.91,6.28,16.85a.13.13,0,0,1-.21.16c-4.73-5.65-6.26-10.37-6.28-17C260.87,49.3,261,49.25,261.08,49.7Z" style="fill:#263238"></path><path d="M303.84,81.49s1.42-9.95-5.77-16.78c-2.91-2.76-3.53-15-6.79-16.09-3.67-1.23-4.91,9.1-2.63,15.86,0,0-9.55,6.82-7.67,13.43.41,1.43,5.22,7.4,6.89,7.72Z" style="fill:#ffc4c0"></path><path d="M288.64,65.26c-3.81,2.52-7.66,7.16-7.55,11.71a.11.11,0,0,1-.21,0c-.78-4.87,3.62-10.29,7.16-12.33C288.72,64.28,289.62,64.6,288.64,65.26Z" style="fill:#263238"></path><path d="M313.55,164.67l-18.06-81L295,81.26l-1.67-7.53L291.34,65l-3.08-13.81c.64-1.94,1.66-3.06,3-2.61,3.26,1.1,3.88,13.33,6.79,16.09,5.6,5.32,6,12.54,5.86,15.46,1.22,7.76,3.3,20.88,4.45,29.68,2.82,21.83,4.53,36.22,5.15,53.89C313.54,164.05,313.55,164.36,313.55,164.67Z" style="opacity:0.1"></path><path d="M290.88,148.21l22.61-13.47s1.59,28.91-.34,37.54c-2.17,9.72-6.67,6.48-11.8-1.47S290.88,148.21,290.88,148.21Z" style="fill:#FFC727"></path><path d="M303.94,155c-.59-1.3-1.6-3.88-3.53-3.2-1.5.52-1.52,2.45-1.4,3.74a10.76,10.76,0,0,0,2.3,5.68c.53.69,1.4,1.56,2.21,1.51.8.1,1.35-.53,1.55-1.52A10.12,10.12,0,0,0,303.94,155Zm6.24-4.91c-.92-.09-2.21,1.66-2.23,4.39,0,3,1.12,4.56,1.92,4.47,1.58-.19,2.07-2.65,2.08-4.56C312,152.94,311.29,150.23,310.18,150.12Z" style="fill:#263238"></path><path d="M294.11,151.83c3.11-1.33,11.89-6.62,13.34-7.48.77-.45,3.76-2.4,4.53-2.84.1-.06,0-.2-.1-.15-1.47.86-3,1.56-4.52,2.4s-10.6,5.9-13.31,8A.06.06,0,0,0,294.11,151.83Z" style="fill:#263238"></path><path d="M314,163.41a53.92,53.92,0,0,1-.85,8.87c-2.17,9.71-6.66,6.48-11.8-1.46-.71-1.1-1.41-2.33-2.12-3.62Z" style="opacity:0.1"></path><path d="M348.1,251.52c-.2.14-66.62-7.12-67.08-8-.24-.44,12.87-66.11,32.56-81.89,3.67-2.94,13.11-1.18,16.68,3.2C340.84,177.84,348.81,251,348.1,251.52Z" style="fill:#ebebeb"></path><path d="M314.2,161c-6.44,10.13-16.62,39.8-18.12,51.84-.67,5.34-.79,47.08-.79,47.08L278,249.56s8.25-38,12.93-50.9,16.73-31.46,19.21-34.25C312.81,161.35,314.2,161,314.2,161Z" style="fill:#FFC727"></path><path d="M326.78,161.51s3.25,1.51,5.93,6.15,11.75,42.62,15.44,48S365.31,217,365.31,217a29.63,29.63,0,0,0,1,8c1.07,3.11-18.75,36-19.92,36s-20.78-23.9-22.63-35.48S325,176.64,325.36,172,326.78,161.51,326.78,161.51Z" style="fill:#FFC727"></path><path d="M294.59,224.31a11.39,11.39,0,0,0-1.93,4.63c-.14.92-.16,2.33,1,2.46a2.35,2.35,0,0,0,1.82-.93c0-2.67.08-5.24.13-7.55A5.29,5.29,0,0,0,294.59,224.31Zm-6.35,4.5c-.18-1.2-.83-2.56-2.26-2s-2.06,2.78-2.23,4.26a10.45,10.45,0,0,0,.11,3.63,3,3,0,0,0,.84,1.73c1.34,1.11,2.08-.88,2.5-1.86A10.65,10.65,0,0,0,288.24,228.81ZM347,253.13a10.7,10.7,0,0,0-1.4-5.7c-.67-1-1.81-2-2.88-.88s-.75,3.38-.3,4.82a10.56,10.56,0,0,0,1.58,3.25,3,3,0,0,0,1.48,1.24C347.09,256.32,347,254.2,347,253.13Zm-53-36.71c-.91-.4-1.67.16-2.23,1a9.06,9.06,0,0,0-1.44,3.33c-.13.71-.36,2,.33,2.52s1.57-.08,2-.62C293.5,221.68,295.94,217.34,293.94,216.42Zm-10.19,24.63c-.56-1.21-1.47-3.54-3.15-3.29-.52,2.24-1,4.26-1.35,6a11,11,0,0,0,1.86,3.55c.54.67,1.41,1.55,2.22,1.51s1.35-.53,1.55-1.52A10.23,10.23,0,0,0,283.75,241.05Zm6.24-4.91c-.92-.09-2.21,1.67-2.23,4.4,0,3,1.12,4.56,1.92,4.47,1.58-.2,2.07-2.65,2.08-4.56C291.78,239,291.1,236.26,290,236.14Zm1.34-30.82c-1,.28-1.38,1.32-1.46,2.42a7.92,7.92,0,0,0,.1,2.46c.12.53.43,1.2,1.09,1s1.06-1.29,1.21-1.89C292.46,208.55,293.26,204.75,291.33,205.32Zm58.77,36.75c-1,.28-1.37,1.32-1.45,2.43a7.94,7.94,0,0,0,.1,2.46c.11.52.42,1.2,1.08,1s1.07-1.28,1.21-1.88C351.23,245.3,352,241.5,350.1,242.07Zm-11.43-55.54a8.27,8.27,0,0,0-1.5,4c-.34,1.23-.32,2.4.82,2.51.78.08,1.57-.87,2.1-1.54C339.61,189.82,339.14,188.16,338.67,186.53Zm5.58,19a11.13,11.13,0,0,0-1.9,2c-.56.74-1.21,2-.2,2.65s2.41-.07,3.41-.61C345.14,208.35,344.7,207,344.25,205.56Zm-6.86-3c-1.68-.14-3.12,1.53-4,2.76a10.68,10.68,0,0,0-1.56,3.27,3,3,0,0,0-.05,1.92c.67,1.59,2.25.18,3.08-.5a10.72,10.72,0,0,0,3.58-4.65C338.87,204.2,338.93,202.7,337.39,202.56Zm-10.2,7.12c-1.57-.22-2.47,1.47-3,2.69a11,11,0,0,0-.58,6.08c.17.86.53,2,1.27,2.38s1.44.14,2.08-.65a10.11,10.11,0,0,0,1.86-6C328.92,212.72,329.21,210,327.19,209.68Zm9.46,3c-.77-.51-2.72.45-4,2.88-1.38,2.6-1.11,4.55-.35,4.83,1.5.57,3-1.39,3.95-3.07C336.94,216,337.59,213.28,336.65,212.67Zm5.7,11.3c-1.23.17-1.9,1.35-2.19,2.67a9.44,9.44,0,0,0-.31,3c0,.65.31,1.51,1.14,1.4s1.51-1.37,1.8-2.07C343.16,228.06,344.79,223.61,342.35,224Z" style="fill:#263238"></path><path d="M330.13,161.33c10.08-15.85,18.26-27.24,32.6-45.69,7.47-9.61,16.84-21.09,20.15-25.18,4.36-5.4,26.16,21,22.79,24.39-2.2,2.19-9.43,9.26-22,20.46-14.36,12.75-26.49,23.35-43.1,35.52C328,180,323.47,171.81,330.13,161.33Z" style="fill:#ffc4c0"></path><path d="M398.64,119.66c6.64-1.54,27.66-12.23,31.32-15.26s13.59-12.51,11.56-15.56-5.16-.5-5.16-.5,4-5,1.23-7.54c-2.19-2-6.78,1.36-6.78,1.36s4.06-5.77,1-7.89c-2.76-1.94-6.8,2.92-6.8,2.92s2.9-5.17-.11-6.52C421.29,69,416.26,78,412,81c-1,.69-27.21,11.8-27.21,11.8Z" style="fill:#ffc4c0"></path><path d="M424.94,76.89c-4.45,6.31-6.47,8.8-13,12.31-.13.07-.05.28.09.22,6.72-2.86,9.33-5.64,13.26-12.37C425.46,76.73,425.15,76.6,424.94,76.89Z" style="fill:#263238"></path><path d="M430.74,82.14c-4.45,6.49-7.47,8.75-14.06,12.93-.09.06,0,.23.1.17,6.8-3.56,10.61-5.94,14.2-13C431.15,81.92,431,81.85,430.74,82.14Z" style="fill:#263238"></path><path d="M436,88.55c-4.76,6-7.91,8.79-14.82,12a.14.14,0,0,0,.1.26c7.37-2.62,11.32-6.11,14.89-12.12C436.44,88.31,436.33,88.18,436,88.55Z" style="fill:#263238"></path><rect x="399.37" y="66.15" width="61.58" height="8.57" transform="translate(233.45 -318.54) rotate(53.87)" style="fill:#FFC727"></rect><rect x="381.44" y="65.61" width="61.58" height="35.82" transform="translate(236.66 -298.69) rotate(53.87)" style="fill:#FFC727"></rect><rect x="381.44" y="65.61" width="61.58" height="35.82" transform="translate(236.66 -298.69) rotate(53.87)" style="opacity:0.1"></rect><rect x="399.37" y="67.04" width="61.58" height="6.79" transform="translate(233.45 -318.54) rotate(53.87)" style="fill:#fff"></rect><path d="M412.74,50C424,64.78,436,81.28,446.69,96.48,435.47,81.67,423.43,65.16,412.74,50Z" style="fill:#dbdbdb"></path><path d="M413.82,49.18C425,64,437.08,80.5,447.77,95.7c-11.22-14.81-23.26-31.32-33.95-46.52Z" style="fill:#dbdbdb"></path><path d="M414.89,48.39c11.22,14.82,23.27,31.32,34,46.52-11.22-14.81-23.27-31.32-34-46.52Z" style="fill:#dbdbdb"></path><path d="M416,47.61c11.22,14.81,23.27,31.32,33.95,46.52C438.7,79.31,426.66,62.81,416,47.61Z" style="fill:#dbdbdb"></path><path d="M379.78,94.61s4.07-9.87,14.32-12.24c4.15-1,11.3-11.82,14.88-11.07,4,.85-.4,11-6.14,15.93,0,0,5.07,11.38-.21,16.41-1.15,1.09-8.76,4-10.46,3.36Z" style="fill:#ffc4c0"></path><path d="M402.44,87.94c2.13,4.36,3.14,10.68.59,14.79a.11.11,0,0,0,.18.13c3.34-4,2.23-11.35.09-15.13C402.89,87,401.89,86.82,402.44,87.94Z" style="fill:#263238"></path><path d="M357.51,160.23l-12.8-23s-15.88,24.21-18.54,32.65c-3,9.5,2.51,8.95,10.95,4.65S357.51,160.23,357.51,160.23Z" style="fill:#FFC727"></path><path d="M343.5,157.23c-.91-.41-1.67.15-2.23,1a9.45,9.45,0,0,0-1.44,3.32c-.13.72-.36,2,.34,2.53s1.56-.09,2-.62C343.06,162.48,345.5,158.14,343.5,157.23Zm-3.29-12.94c-1.5,2.36-3.21,5.14-4.92,8a2.53,2.53,0,0,0,1.09,1.64c.66.45,1.44.15,2.08-.64a13.9,13.9,0,0,0,1.75-9Zm7.91,1.49c-.78-.5-2.72.46-4,2.87-1.38,2.61-1.11,4.56-.35,4.84,1.49.56,3.05-1.39,3.95-3.07C348.41,149.1,349.06,146.4,348.12,145.78Z" style="fill:#263238"></path><path d="M352.9,161.74c-2-2.71-7-11.69-7.79-13.17-.44-.78-2.05-4-2.49-4.73-.06-.1.11-.17.16-.07.85,1.47,1.85,2.86,2.71,4.34s6.2,10.42,7.52,13.56C353,161.74,352.94,161.8,352.9,161.74Z" style="fill:#263238"></path><path d="M334.23,177.24c.33-.33.67-.65,1-1-1.92,1.16-3.88,2.23-5.89,3.23,0,0-.08-.05,0-.08,2.09-1.45,4.19-2.85,6.35-4.18,1-.63,2.53-1.53,3.66-2.27.13-.09.28.11.15.19-1.09.7-2.11,1.82-3.06,2.41a8.39,8.39,0,0,1-.71.75c-.4.39-.82.77-1.25,1.12-.87.71-1.77,1.39-2.65,2.08,0,0,0,0,0,0C332.63,178.78,333.44,178,334.23,177.24Z" style="fill:#263238"></path><path d="M315.05,159.77c-7.81-.85-23.53,21-27.51,30.68-2,4.91-.89,20.62-.61,20.8s1.11-3.47,1.51-4.84,3.47-11.61,5.46-16.41c3.48-8.4,21.57-28.69,21.86-29S315.77,159.85,315.05,159.77Z" style="fill:#455a64"></path><path d="M314.19,173.3c2.82.83,10.07-3,13.49-7,.23-.27.47-3.59,1-7.61.3-2.45.7-5.16,1.24-7.6l-16.18.34a39.77,39.77,0,0,1-.59,9.72,5,5,0,0,1-.33,1,1,1,0,0,0,0,.16C312,164.19,309.78,172,314.19,173.3Z" style="fill:#ffc4c0"></path><path d="M312.79,162.19a.84.84,0,0,0-.07.16,10.16,10.16,0,0,0,1.57.43c8.77,1.73,13.25-8.44,14.42-11.62l-15,.31a40.25,40.25,0,0,1-.58,9.74A8.66,8.66,0,0,1,312.79,162.19Z" style="fill:#263238"></path><path d="M338,133c-.06,5.82-7.72,20.29-12.58,22.52-7.05,3.23-16.18.87-18.31-7-2.07-7.68,8.25-26.36,13.46-28.14C328.19,117.68,338,124.35,338,133Z" style="fill:#ffc4c0"></path><path d="M324.8,135.48c-.39-.33-.68-.69-1-1a2.37,2.37,0,0,1-.84-1.27.75.75,0,0,1,.51-.76,1.86,1.86,0,0,1,1.77.65,2.76,2.76,0,0,1,.9,1.76A.8.8,0,0,1,324.8,135.48Z" style="fill:#263238"></path><path d="M315.05,130.68a11.69,11.69,0,0,0,1.43.29,2.33,2.33,0,0,0,1.52,0,.75.75,0,0,0,.36-.84,1.85,1.85,0,0,0-1.51-1.13,2.74,2.74,0,0,0-2,.2A.8.8,0,0,0,315.05,130.68Z" style="fill:#263238"></path><path d="M318.45,146.64a1.67,1.67,0,0,1-1.11.18,3.07,3.07,0,0,1-.95-.77s-.07,0-.07,0a1.52,1.52,0,0,0,1,1.15,1.19,1.19,0,0,0,1.21-.49C318.57,146.69,318.5,146.63,318.45,146.64Z" style="fill:#263238"></path><path d="M318.87,143.17a3.77,3.77,0,0,1-3,.4,5.24,5.24,0,0,1-1.24-.54,1.64,1.64,0,0,1-.22-.14l-.2-.14a.28.28,0,0,1-.09-.32h0l.06-.1h0l0-.09c.35-.77,1-1.89,1-1.89-.35,0-2.08-.06-1.87-.45a56.86,56.86,0,0,1,6.31-9.56.1.1,0,0,1,.17.11c-1.62,3.15-3.78,6-5.46,9.12a6.73,6.73,0,0,1,1.83.3c.09.08-1.28,2.15-1.41,2.51a.06.06,0,0,0,0,0,5.16,5.16,0,0,0,4,.62C318.92,143,319,143.12,318.87,143.17Z" style="fill:#263238"></path><path d="M315.28,142.86a4.52,4.52,0,0,0,1,2,2,2,0,0,0,1.06.6c.89.18,1.27-.54,1.43-1.23a4.89,4.89,0,0,0,.11-1.12A5.8,5.8,0,0,1,315.28,142.86Z" style="fill:#263238"></path><path d="M316.27,144.89a2,2,0,0,0,1.06.6c.89.18,1.27-.54,1.43-1.23A2.07,2.07,0,0,0,316.27,144.89Z" style="fill:#ff9bbc"></path><path d="M323.46,137.88a1.66,1.66,0,0,0,0-.88,1.19,1.19,0,0,0-.65-.69,1.08,1.08,0,0,0-1,.09,1.86,1.86,0,0,0-.6.62,2.92,2.92,0,0,0-.23.47,2.29,2.29,0,0,0-.19,1.06,3.32,3.32,0,0,1,.34-.71,4,4,0,0,1,.41-.58c.31-.37.7-.62,1-.46s.51.54.47,1a7.34,7.34,0,0,1-.29,1.47A3.38,3.38,0,0,0,323.46,137.88Z" style="fill:#263238"></path><path d="M313.9,132.89a1.71,1.71,0,0,1,.71-.51,1.17,1.17,0,0,1,.95.08,1.1,1.1,0,0,1,.53.81,1.88,1.88,0,0,1-.12.86,2.92,2.92,0,0,1-.23.47,2.31,2.31,0,0,1-.72.8,4.2,4.2,0,0,0,.55-1.38c.1-.47.06-.94-.27-1.1a.92.92,0,0,0-1.1.26,7.32,7.32,0,0,0-1,1.14A3.37,3.37,0,0,1,313.9,132.89Z" style="fill:#263238"></path><path d="M332.09,145.48c-.65-1-.3-6.43-.3-6.43s-8.62-6.5-7.34-15.57c0,0-6.07,3.88-10.45,3.89,0,0,2.64-9,11.29-7.94,0,0,9-.89,13.81,8.77s-4.57,18.16-4.57,18.16Z" style="fill:#263238"></path><path d="M325.16,121.89a8.62,8.62,0,0,0-.94,4.47,16.05,16.05,0,0,0,.73,4.51,14,14,0,0,0,2,4.22,17.85,17.85,0,0,0,3.89,3.62s0,.11-.06.08a20.9,20.9,0,0,1-4.21-3.58,14.67,14.67,0,0,1-2.29-4.27,11.77,11.77,0,0,1-.79-4.8A9.81,9.81,0,0,1,325,121.8C325.05,121.7,325.22,121.79,325.16,121.89Z" style="fill:#263238"></path><path d="M323.53,117.59c1.9-.77,6.33-2.14,9.9-1.6s8,3.16,9.54,4c1.26.7,5.69,2,8.79,4.55a6.86,6.86,0,0,1,1.82,6.76c-.93,2.38-5.73,0-6.14.9-.27.61,0,3.92-1.81,5.11s-1.71,1-2.74,1.61c-2.51,1.57-3-10.56-6.79-14.51S323.53,117.59,323.53,117.59Z" style="fill:#FFC727"></path><path d="M323.86,117.83s8.47,2.64,12.24,6.59,3.68,15.5,6.2,13.93c1.1-.69,1.66-1.75,2.16-3.54-.42-3.39-1.63-8.67-4.34-12.38-2.54-3.48-7-5.33-11.87-6A28,28,0,0,0,323.86,117.83Z" style="opacity:0.1"></path><path d="M341.5,143.94c-1.78-4-3.1-10.17-6.25-15s-12.72-7.86-14.07-7.82c-3.29.1-4.05,1.64-4.56,1.33s2.87-3.93,3.81-4.46a10.66,10.66,0,0,1,4.57-1c1.42.07,10.18,1.2,13.26,5s7.3,14.47,6.4,17.13c-.22.64-1.09,1-1.39,1.94-.39,1.19-.69,2.57-1.07,3.4C341.88,145.18,341.61,144.18,341.5,143.94Z" style="fill:#FFC727"></path><path d="M334.56,126.81a15.5,15.5,0,0,0,2.17-1.5,11.59,11.59,0,0,0,1.88-1.89s.12,0,.09,0A8.65,8.65,0,0,1,337,125.6a7.45,7.45,0,0,1-2.36,1.37C334.53,127,334.47,126.86,334.56,126.81Z" style="fill:#263238"></path><path d="M341.54,142.12a5.67,5.67,0,0,1,.36-.63,4.93,4.93,0,0,0,.31-.75,6.72,6.72,0,0,1,.39-1.48,5.29,5.29,0,0,1,.75-1A2.08,2.08,0,0,0,344,137c0-.07.11-.07.1,0a5.19,5.19,0,0,1-1.1,2.35,9.38,9.38,0,0,0-.46,1.59,2.45,2.45,0,0,1-.85,1.26C341.61,142.26,341.51,142.19,341.54,142.12Z" style="fill:#263238"></path><path d="M340.57,138.76c.31-.35.63-.65.9-1a8.86,8.86,0,0,0,.69-1.14c.21-.38.38-.78.58-1.17s.53-.9.74-1.37c0-.06.11,0,.08.06-.21.48-.35,1-.55,1.51s-.4.84-.62,1.24a7.48,7.48,0,0,1-.76,1.08,3.34,3.34,0,0,1-1,.85S340.55,138.78,340.57,138.76Z" style="fill:#263238"></path><path d="M339.54,135.72a8.93,8.93,0,0,0,1.73-1.85c.47-.68.9-1.39,1.32-2.1a0,0,0,0,1,.09,0,10.1,10.1,0,0,1-1.13,2.31,5.58,5.58,0,0,1-.81.94,5.64,5.64,0,0,1-1.13.74C339.56,135.83,339.49,135.76,339.54,135.72Z" style="fill:#263238"></path><path d="M338.41,132.8a3.36,3.36,0,0,0,.84-.8c.27-.34.54-.68.8-1l.75-1a2.86,2.86,0,0,0,.58-1.12.06.06,0,0,1,.11,0,3.4,3.4,0,0,1-.39,1.19,8,8,0,0,1-.74,1.18,9.88,9.88,0,0,1-.89,1.05,2,2,0,0,1-1,.65C338.38,132.94,338.33,132.84,338.41,132.8Z" style="fill:#263238"></path><path d="M337.63,129.12c.3-.27.59-.55.86-.84s.53-.6.78-.91.53-.65.77-1a.05.05,0,1,1,.09,0,7.82,7.82,0,0,1-.6,1.1,10.24,10.24,0,0,1-1.64,1.83,3,3,0,0,1-1,.67c-.06,0-.12,0-.08-.1A5.43,5.43,0,0,1,337.63,129.12Z" style="fill:#263238"></path><path d="M332.25,125a14,14,0,0,1,1-1.07,12.87,12.87,0,0,1,1.12-1,12.62,12.62,0,0,1,2.43-1.54c.05,0,.11,0,.07.08-1.5,1.2-3,2.34-4.52,3.56A0,0,0,1,1,332.25,125Z" style="fill:#263238"></path><path d="M330.46,122.3a6.5,6.5,0,0,1,1.07-1,14.19,14.19,0,0,1,2.68-1.39c.06,0,.11,0,.06.09-.82.51-1.64,1-2.42,1.55a14.08,14.08,0,0,0-1.13.87c-.36.32-.63.7-1,1a0,0,0,0,1-.07,0A3.72,3.72,0,0,1,330.46,122.3Z" style="fill:#263238"></path><path d="M327.93,121a6.49,6.49,0,0,1,1-1,7.82,7.82,0,0,1,2.28-1.26c.06,0,.09.07,0,.1a15.21,15.21,0,0,0-2.16,1.47c-.34.28-.67.58-1,.87s-.61.66-1,.91c0,0-.06,0-.05-.05A8.08,8.08,0,0,1,327.93,121Z" style="fill:#263238"></path><path d="M326.12,119.43q.51-.37,1-.72a3.92,3.92,0,0,1,1.09-.57c.06,0,.08.06,0,.09-.65.49-1.28,1-1.92,1.48a11.24,11.24,0,0,0-1.49,1.66s-.06,0-.05,0A4,4,0,0,1,326.12,119.43Z" style="fill:#263238"></path><path d="M323.83,118.87a6.28,6.28,0,0,1,2.09-1.22c.05,0,.09.07,0,.09a8,8,0,0,0-1.91,1.35,10.89,10.89,0,0,0-1.53,1.79s-.08,0-.06,0A5.23,5.23,0,0,1,323.83,118.87Z" style="fill:#263238"></path><path d="M320.76,120.16a4.34,4.34,0,0,1,.28-.46,5,5,0,0,1,.71-.82,10.77,10.77,0,0,1,1.78-1.29c.06,0,.11,0,.06.09a9,9,0,0,0-1.68,1.33,7.37,7.37,0,0,0-.68.8,4,4,0,0,0-.29.43,2.39,2.39,0,0,1-.27.43,0,0,0,0,1-.08,0A1.33,1.33,0,0,1,320.76,120.16Z" style="fill:#263238"></path><path d="M318.9,120.27c.19-.23.38-.46.59-.67a6.27,6.27,0,0,1,.66-.6c.23-.19.48-.37.71-.57a.05.05,0,1,1,.06.08,6.66,6.66,0,0,0-.67.63l-.59.63-.6.63c-.2.21-.37.46-.59.65a0,0,0,0,1-.07,0A4.49,4.49,0,0,1,318.9,120.27Z" style="fill:#263238"></path><path d="M330.71,144.43s5.12-3.76,6.94-1.78-3.19,8.27-6.15,8.35a2.81,2.81,0,0,1-3.09-2.64Z" style="fill:#ffc4c0"></path><path d="M336.17,144.42c.05,0,0,.07,0,.07-2.09.12-3.64,1.51-4.92,3a1.55,1.55,0,0,1,2.34.34c0,.05,0,.11-.08.08a1.75,1.75,0,0,0-2,0,9,9,0,0,0-1.37,1.17c-.14.14-.4-.05-.28-.22l0,0C330.63,146.47,333.57,143.8,336.17,144.42Z" style="fill:#263238"></path><path d="M328.71,162.44c-5.54,5.59,1.61,32.81,6.68,41.94,2.58,4.65,12.44,11.34,12.76,11.24s.82-5.33,0-6.5-5.2-5.45-7.71-10c-4.4-8-10.27-36-10.3-36.44S329.21,161.93,328.71,162.44Z" style="fill:#455a64"></path></g><g id="freepik--speech-bubble--inject-11"><path d="M253.45,94.89a20.87,20.87,0,0,1-34.88,13.2l-10.44,1.54,5.22-9a20.88,20.88,0,1,1,40.1-5.71Z" style="fill:#fff"></path><path d="M253.45,94.89a21.06,21.06,0,0,1-4.21,10.58,19,19,0,0,1-4.1,4,21.1,21.1,0,0,1-10.66,4.15,20,20,0,0,1-2.9,0,17.6,17.6,0,0,1-2.89-.3,21,21,0,0,1-10.32-5.1l.24.08L208.18,110l-.76.12.39-.67,5.19-9,0,.36a21.14,21.14,0,0,1,1.28-18.61,21.44,21.44,0,0,1,6.54-7,21.26,21.26,0,0,1,18.35-2.47,21.4,21.4,0,0,1,8,4.94A21,21,0,0,1,253.45,94.89Zm0,0A20.74,20.74,0,0,0,239.06,73a20.83,20.83,0,0,0-17.91,2.71,21.61,21.61,0,0,0-6.24,6.81,20.56,20.56,0,0,0-2.65,8.84,20.77,20.77,0,0,0,1.47,9.09l.07.19-.1.17-5.25,9-.38-.55,10.46-1.46.14,0,.1.09a20.5,20.5,0,0,0,10,5.15,17.94,17.94,0,0,0,2.83.35,19.5,19.5,0,0,0,2.86,0,20.14,20.14,0,0,0,5.57-1.23,19.32,19.32,0,0,0,5-2.71,22.8,22.8,0,0,0,2.2-1.84,21.59,21.59,0,0,0,1.9-2.16A20.92,20.92,0,0,0,253.45,94.89Z" style="fill:#263238"></path><polygon points="230.24 104.62 221.33 95.6 224.32 92.64 229.53 97.91 240.35 80.94 243.9 83.21 230.24 104.62" style="fill:#FFC727"></polygon></g></svg>